<?xml version="1.0" encoding="utf-8"?>
<!-- Generator: Adobe Illustrator 16.0.4, SVG Export Plug-In . SVG Version: 6.00 Build 0)  -->
<!DOCTYPE svg PUBLIC "-//W3C//DTD SVG 1.1//EN" "http://www.w3.org/Graphics/SVG/1.1/DTD/svg11.dtd">
<svg version="1.1" id="Layer_1" xmlns="http://www.w3.org/2000/svg" xmlns:xlink="http://www.w3.org/1999/xlink" x="0px" y="0px"
	 width="39px" height="50px" viewBox="0 0 39 50" enable-background="new 0 0 39 50" xml:space="preserve">
<g>
	<path fill="#8869AE" d="M-158.048-75.44c-1.017-1.256-2.207-2.355-3.521-3.267l1.135-4.902c0.04-0.174-0.069-0.348-0.243-0.388
		c-0.174-0.041-0.348,0.068-0.388,0.242l-1.079,4.666c-1.625-1.031-3.421-1.787-5.307-2.213c-0.174-0.04-0.348,0.07-0.387,0.244
		c-0.039,0.174,0.07,0.348,0.244,0.387c1.888,0.426,3.682,1.195,5.294,2.251l-1.782,7.703c-0.014,0.058-0.025,0.114-0.036,0.169
		c-0.004,0.012-0.009,0.023-0.012,0.035c-0.185,0.797-0.6,1.195-0.916,1.389c-0.335,0.205-0.731,0.278-1.06,0.196
		c-0.693-0.174-0.938-0.727-0.725-1.643l0.456-1.986c0.175-0.746,0.103-1.446-0.208-2.024c-0.289-0.539-0.778-0.927-1.341-1.065
		c-0.753-0.185-1.521-0.07-2.162,0.326c-0.146,0.09-0.285,0.195-0.415,0.312l2.377-10.271c0.001-0.003,0.001-0.005,0.002-0.008
		c0.667-2.891,0.203-5.749-1.308-8.048c-1.517-2.309-3.913-3.866-6.747-4.385c-2.942-0.539-5.846,0.012-8.172,1.549
		c-2.376,1.569-3.988,4.077-4.539,7.06c-0.527,2.856,0.432,6.694,2.317,8.754c-0.043,0.02-0.087,0.04-0.129,0.062
		c-0.539,0.273-1.248,0.832-1.561,1.936c-0.35,1.233-0.04,2.113,0.281,2.634c0.024,0.041,0.051,0.08,0.078,0.12
		c-0.859,0.534-1.498,1.431-1.81,2.552c-0.534,1.925,0.456,3.952,2.254,4.615c0.349,0.128,0.801,0.208,1.299,0.208
		c0.675,0,1.436-0.145,2.149-0.505c0.539-0.272,1.005-0.646,1.392-1.109c0.035,0.791,0.432,1.337,1.144,1.541
		c0.116,0.033,0.318,0.077,0.577,0.077c0.316,0,0.717-0.065,1.148-0.296c0.371-0.197,0.846-0.57,1.248-1.267
		c0.272,0.647,0.744,1.089,1.385,1.289c0.19,0.059,0.395,0.089,0.608,0.089l0,0c0.061,0,0.122-0.003,0.183-0.008
		c0.009,0,0.017,0,0.025,0c0.059,0,0.117-0.002,0.175-0.006c-0.083,0.075-0.168,0.152-0.255,0.23
		c-2.317,2.097-6.196,5.608-6.548,10.419c-0.193,2.66,0.612,5.005,2.331,6.783c1.094,1.131,2.51,1.971,4.062,2.447
		c1.041,0.352,3.045,0.624,4.622,0.624c4.487,0,8.972-1.801,12.301-4.942c3.428-3.234,5.315-7.48,5.315-11.955
		C-154.294-68.677-155.627-72.448-158.048-75.44z M-176.767-69.124c-0.412-0.103-0.779-0.398-1.031-0.832
		c-0.134-0.229-0.232-0.487-0.296-0.767c-0.074-0.502-0.046-1.129,0.133-1.894c0.421-1.799,1.496-2.437,2.288-2.437
		c0.097,0,0.196,0.007,0.297,0.023c0.451,0.07,0.804,0.294,1.046,0.667c0.436,0.67,0.492,1.768,0.155,3.012
		c-0.428,1.578-1.398,2.207-2.167,2.284C-176.485-69.071-176.627-69.089-176.767-69.124z M-160.053-53.335
		c-2.884,2.721-6.665,4.399-10.54,4.712c1.187-0.446,2.264-1.169,3.154-2.133c1.468-1.585,2.275-3.633,2.275-5.768
		c0-2.292-0.779-4.356-2.192-5.812c-1.41-1.453-3.404-2.254-5.613-2.254c-1.137,0-2.263,0.281-3.256,0.812
		c-0.862,0.461-1.586,1.103-1.983,1.758c-0.093,0.153-0.044,0.352,0.108,0.444c0.153,0.093,0.352,0.044,0.444-0.109
		c0.681-1.123,2.51-2.259,4.687-2.259c4.215,0,7.158,3.051,7.158,7.42c0,1.971-0.746,3.864-2.103,5.33
		c-1.385,1.497-3.258,2.365-5.273,2.444c-1.062,0.041-2.121-0.1-3.119-0.402c-0.028-0.009-0.056-0.019-0.082-0.027
		c-0.011-0.004-0.021-0.006-0.033-0.009c-1.417-0.447-2.708-1.219-3.708-2.253c-1.587-1.642-2.331-3.815-2.15-6.287
		c0.331-4.553,3.945-7.823,6.337-9.987c0.862-0.781,1.545-1.397,1.83-1.877c0.002-0.003,0.002-0.007,0.004-0.01
		c0.312-0.426,0.562-0.957,0.73-1.579c0.361-1.335,0.28-2.539-0.227-3.391c-0.338-0.566-0.849-0.944-1.477-1.092
		c-0.187-0.044-0.378-0.065-0.57-0.065c-1.627,0-2.601,1.421-2.97,2.751c-0.215,0.776-0.259,1.541-0.138,2.221
		c-0.678,1.822-1.907,2.012-2.534,1.832c-0.605-0.173-0.809-0.728-0.607-1.646l1.035-4.471c0.04-0.174-0.068-0.348-0.242-0.388
		c-0.175-0.041-0.348,0.068-0.389,0.242l-0.755,3.263c-0.359,1.228-1.047,2.107-2.047,2.612c-1.062,0.535-2.265,0.514-2.934,0.267
		c-1.46-0.539-2.292-2.259-1.854-3.835c0.278-1.003,0.852-1.792,1.618-2.23c0.399,0.362,0.899,0.614,1.447,0.719
		c0.682,0.131,1.083-0.19,1.179-0.568c0.095-0.372-0.107-0.843-0.674-1.022c-0.549-0.181-1.188-0.149-1.798,0.085
		c-0.041-0.054-0.079-0.11-0.115-0.167c-0.362-0.589-0.436-1.322-0.209-2.119c0.249-0.879,0.807-1.32,1.23-1.535
		c0.111-0.057,0.228-0.105,0.349-0.145c0.434,0.367,0.906,0.645,1.413,0.804c0.008,0.002,0.016,0.004,0.024,0.006
		c0.501,0.117,0.838-0.157,0.94-0.46c0.107-0.322-0.02-0.754-0.471-0.954c-0.006-0.002-0.013-0.005-0.019-0.007
		c-0.522-0.195-1.136-0.227-1.721-0.104c-1.869-1.82-2.868-5.671-2.361-8.415c0.519-2.809,2.031-5.167,4.26-6.639
		c2.187-1.445,4.921-1.961,7.699-1.452c2.659,0.486,4.904,1.944,6.323,4.104c1.413,2.152,1.845,4.834,1.216,7.552
		c0,0.002-0.001,0.005-0.002,0.008l-3.837,16.582c-0.041,0.174,0.068,0.348,0.242,0.388c0.174,0.04,0.348-0.068,0.388-0.242
		l0.946-4.088c0.005-0.014,0.01-0.026,0.013-0.041c0.206-0.895,0.641-1.569,1.258-1.949c0.5-0.308,1.076-0.394,1.669-0.249
		c0.758,0.186,1.37,1.041,1.073,2.315l-0.457,1.986c-0.418,1.806,0.698,2.292,1.198,2.416c0.142,0.036,0.289,0.054,0.438,0.054
		c0.377,0,0.766-0.111,1.114-0.325c0.215-0.131,0.463-0.331,0.686-0.628c0.268,0.602,0.825,0.822,1.14,0.9
		c0.156,0.04,0.32,0.059,0.485,0.059c0.4,0,0.811-0.112,1.159-0.326c0.372-0.228,0.858-0.684,1.062-1.561
		c0.04-0.174-0.068-0.348-0.242-0.388c-0.174-0.04-0.348,0.068-0.388,0.242c-0.121,0.521-0.387,0.921-0.77,1.156
		c-0.409,0.25-0.863,0.263-1.151,0.191c-0.692-0.173-0.937-0.726-0.724-1.643l1.726-7.456c1.182,0.847,2.253,1.853,3.176,2.994
		c2.328,2.877,3.61,6.505,3.61,10.214C-154.941-60.524-156.756-56.446-160.053-53.335z M-186.777-75.39
		c0.372-0.09,0.74-0.084,1.062,0.022c0.187,0.059,0.266,0.172,0.247,0.248c-0.021,0.081-0.179,0.141-0.431,0.093
		C-186.217-75.089-186.517-75.214-186.777-75.39z M-185.161-80.004c0.266,0.003,0.524,0.046,0.756,0.131
		c0.097,0.045,0.126,0.11,0.111,0.154c-0.018,0.051-0.101,0.052-0.17,0.038C-184.705-79.758-184.937-79.867-185.161-80.004z"/>
	<path fill="#8869AE" d="M-171.045-81.397c-0.002-0.179-0.148-0.325-0.327-0.319c-3.602,0.044-7.22,1.373-9.219,3.387
		c-0.125,0.127-0.124,0.332,0.002,0.458c0.063,0.062,0.146,0.093,0.229,0.093c0.082,0,0.166-0.032,0.229-0.095
		c1.856-1.87,5.38-3.155,8.768-3.196C-171.186-81.072-171.043-81.218-171.045-81.397z"/>
</g>
<g>
	<path fill="#8869AE" stroke="#7C64AC" stroke-width="0.5" stroke-miterlimit="10" d="M-74.048-75.44
		c-1.017-1.256-2.207-2.355-3.521-3.267l1.135-4.902c0.04-0.174-0.069-0.348-0.243-0.388c-0.174-0.041-0.348,0.068-0.388,0.242
		l-1.079,4.666c-1.625-1.031-3.421-1.787-5.307-2.213c-0.174-0.04-0.348,0.07-0.387,0.244c-0.039,0.174,0.07,0.348,0.244,0.387
		c1.888,0.426,3.682,1.195,5.294,2.251l-1.782,7.703c-0.014,0.058-0.025,0.114-0.036,0.169c-0.004,0.012-0.009,0.023-0.012,0.035
		c-0.185,0.797-0.6,1.195-0.916,1.389c-0.335,0.205-0.731,0.278-1.06,0.196c-0.693-0.174-0.938-0.727-0.725-1.643l0.456-1.986
		c0.175-0.746,0.103-1.446-0.208-2.024c-0.289-0.539-0.778-0.927-1.341-1.065c-0.753-0.185-1.521-0.07-2.162,0.326
		c-0.146,0.09-0.285,0.195-0.415,0.312l2.377-10.271c0.001-0.003,0.001-0.005,0.002-0.008c0.667-2.891,0.203-5.749-1.308-8.048
		c-1.517-2.309-3.913-3.866-6.747-4.385c-2.942-0.539-5.846,0.012-8.172,1.549c-2.376,1.569-3.988,4.077-4.539,7.06
		c-0.527,2.856,0.432,6.694,2.317,8.754c-0.043,0.02-0.087,0.04-0.129,0.062c-0.539,0.273-1.248,0.832-1.561,1.936
		c-0.35,1.233-0.04,2.113,0.281,2.634c0.024,0.041,0.051,0.08,0.078,0.12c-0.859,0.534-1.498,1.431-1.81,2.552
		c-0.534,1.925,0.456,3.952,2.254,4.615c0.349,0.128,0.801,0.208,1.299,0.208c0.675,0,1.436-0.145,2.149-0.505
		c0.539-0.272,1.005-0.646,1.392-1.109c0.035,0.791,0.432,1.337,1.144,1.541c0.116,0.033,0.318,0.077,0.577,0.077
		c0.316,0,0.717-0.065,1.148-0.296c0.371-0.197,0.846-0.57,1.248-1.267c0.272,0.647,0.744,1.089,1.385,1.289
		c0.19,0.059,0.395,0.089,0.608,0.089l0,0c0.061,0,0.122-0.003,0.183-0.008c0.009,0,0.017,0,0.025,0
		c0.059,0,0.117-0.002,0.175-0.006c-0.083,0.075-0.168,0.152-0.255,0.23c-2.317,2.097-6.196,5.608-6.548,10.419
		c-0.193,2.66,0.612,5.005,2.331,6.783c1.094,1.131,2.51,1.971,4.062,2.447c1.041,0.352,3.045,0.624,4.622,0.624
		c4.487,0,8.972-1.801,12.301-4.942c3.428-3.234,5.315-7.48,5.315-11.955C-70.294-68.677-71.627-72.448-74.048-75.44z
		 M-92.767-69.124c-0.412-0.103-0.779-0.398-1.031-0.832c-0.134-0.229-0.232-0.487-0.296-0.767
		c-0.074-0.502-0.046-1.129,0.133-1.894c0.421-1.799,1.496-2.437,2.288-2.437c0.097,0,0.196,0.007,0.297,0.023
		c0.451,0.07,0.804,0.294,1.046,0.667c0.436,0.67,0.492,1.768,0.155,3.012c-0.428,1.578-1.398,2.207-2.167,2.284
		C-92.485-69.071-92.627-69.089-92.767-69.124z M-76.053-53.335c-2.884,2.721-6.665,4.399-10.54,4.712
		c1.187-0.446,2.264-1.169,3.154-2.133c1.468-1.585,2.275-3.633,2.275-5.768c0-2.292-0.779-4.356-2.192-5.812
		c-1.41-1.453-3.404-2.254-5.613-2.254c-1.137,0-2.263,0.281-3.256,0.812c-0.862,0.461-1.586,1.103-1.983,1.758
		c-0.093,0.153-0.044,0.352,0.108,0.444c0.153,0.093,0.352,0.044,0.444-0.109c0.681-1.123,2.51-2.259,4.687-2.259
		c4.215,0,7.158,3.051,7.158,7.42c0,1.971-0.746,3.864-2.103,5.33c-1.385,1.497-3.258,2.365-5.273,2.444
		c-1.062,0.041-2.121-0.1-3.119-0.402c-0.028-0.009-0.056-0.019-0.082-0.027c-0.011-0.004-0.021-0.006-0.033-0.009
		c-1.417-0.447-2.708-1.219-3.708-2.253c-1.587-1.642-2.331-3.815-2.15-6.287c0.331-4.553,3.945-7.823,6.337-9.987
		c0.862-0.781,1.545-1.397,1.83-1.877c0.002-0.003,0.002-0.007,0.004-0.01c0.312-0.426,0.562-0.957,0.73-1.579
		c0.361-1.335,0.28-2.539-0.227-3.391c-0.338-0.566-0.849-0.944-1.477-1.092c-0.187-0.044-0.378-0.065-0.57-0.065
		c-1.627,0-2.601,1.421-2.97,2.751c-0.215,0.776-0.259,1.541-0.138,2.221c-0.678,1.822-1.907,2.012-2.534,1.832
		c-0.605-0.173-0.809-0.728-0.607-1.646l1.035-4.471c0.04-0.174-0.068-0.348-0.242-0.388c-0.175-0.041-0.348,0.068-0.389,0.242
		l-0.755,3.263c-0.359,1.228-1.047,2.107-2.047,2.612c-1.062,0.535-2.265,0.514-2.934,0.267c-1.46-0.539-2.292-2.259-1.854-3.835
		c0.278-1.003,0.852-1.792,1.618-2.23c0.399,0.362,0.899,0.614,1.447,0.719c0.682,0.131,1.083-0.19,1.179-0.568
		c0.095-0.372-0.107-0.843-0.674-1.022c-0.549-0.181-1.188-0.149-1.798,0.085c-0.041-0.054-0.079-0.11-0.115-0.167
		c-0.362-0.589-0.436-1.322-0.209-2.119c0.249-0.879,0.807-1.32,1.23-1.535c0.111-0.057,0.228-0.105,0.349-0.145
		c0.434,0.367,0.906,0.645,1.413,0.804c0.008,0.002,0.016,0.004,0.024,0.006c0.501,0.117,0.838-0.157,0.94-0.46
		c0.107-0.322-0.02-0.754-0.471-0.954c-0.006-0.002-0.013-0.005-0.019-0.007c-0.522-0.195-1.136-0.227-1.721-0.104
		c-1.869-1.82-2.868-5.671-2.361-8.415c0.519-2.809,2.031-5.167,4.26-6.639c2.187-1.445,4.921-1.961,7.699-1.452
		c2.659,0.486,4.904,1.944,6.323,4.104c1.413,2.152,1.845,4.834,1.216,7.552c0,0.002-0.001,0.005-0.002,0.008l-3.837,16.582
		c-0.041,0.174,0.068,0.348,0.242,0.388c0.174,0.04,0.348-0.068,0.388-0.242l0.946-4.088c0.005-0.014,0.01-0.026,0.013-0.041
		c0.206-0.895,0.641-1.569,1.258-1.949c0.5-0.308,1.076-0.394,1.669-0.249c0.758,0.186,1.37,1.041,1.073,2.315l-0.457,1.986
		c-0.418,1.806,0.698,2.292,1.198,2.416c0.142,0.036,0.289,0.054,0.438,0.054c0.377,0,0.766-0.111,1.114-0.325
		c0.215-0.131,0.463-0.331,0.686-0.628c0.268,0.602,0.825,0.822,1.14,0.9c0.156,0.04,0.32,0.059,0.485,0.059
		c0.4,0,0.811-0.112,1.159-0.326c0.372-0.228,0.858-0.684,1.062-1.561c0.04-0.174-0.068-0.348-0.242-0.388
		c-0.174-0.04-0.348,0.068-0.388,0.242c-0.121,0.521-0.387,0.921-0.77,1.156c-0.409,0.25-0.863,0.263-1.151,0.191
		c-0.692-0.173-0.937-0.726-0.724-1.643l1.726-7.456c1.182,0.847,2.253,1.853,3.176,2.994c2.328,2.877,3.61,6.505,3.61,10.214
		C-70.941-60.524-72.756-56.446-76.053-53.335z M-102.777-75.39c0.372-0.09,0.74-0.084,1.062,0.022
		c0.187,0.059,0.266,0.172,0.247,0.248c-0.021,0.081-0.179,0.141-0.431,0.093C-102.217-75.089-102.517-75.214-102.777-75.39z
		 M-101.161-80.004c0.266,0.003,0.524,0.046,0.756,0.131c0.097,0.045,0.126,0.11,0.111,0.154c-0.018,0.051-0.101,0.052-0.17,0.038
		C-100.705-79.758-100.937-79.867-101.161-80.004z"/>
	<path fill="#8869AE" stroke="#7C64AC" stroke-width="0.5" stroke-miterlimit="10" d="M-87.045-81.397
		c-0.002-0.179-0.148-0.325-0.327-0.319c-3.602,0.044-7.22,1.373-9.219,3.387c-0.125,0.127-0.124,0.332,0.002,0.458
		c0.063,0.062,0.146,0.093,0.229,0.093c0.082,0,0.166-0.032,0.229-0.095c1.856-1.87,5.38-3.155,8.768-3.196
		C-87.186-81.072-87.043-81.218-87.045-81.397z"/>
</g>
<rect x="-245.188" y="0.136" display="none" fill="#8869AE" width="40.909" height="50"/>
<line fill="none" stroke="#7C64AC" stroke-width="4" stroke-linecap="round" stroke-miterlimit="10" x1="-44.187" y1="-73.307" x2="-9.187" y2="-73.307"/>
<line fill="none" stroke="#7C64AC" stroke-width="4" stroke-linecap="round" stroke-miterlimit="10" x1="-44.187" y1="-50.807" x2="-9.187" y2="-50.807"/>
<line fill="none" stroke="#7C64AC" stroke-width="4" stroke-linecap="round" stroke-miterlimit="10" x1="-44.187" y1="-95.807" x2="-9.187" y2="-95.807"/>
<path fill="#7C64AC" d="M-88.157,22.454c-0.988-1.221-2.143-2.303-3.434-3.217l1.097-4.738c0.034-0.149,0.008-0.303-0.073-0.433
	s-0.208-0.22-0.357-0.254c-0.303-0.068-0.618,0.125-0.688,0.429l-1,4.326c-1.587-0.964-3.297-1.656-5.086-2.06
	c-0.306-0.07-0.619,0.132-0.687,0.433c-0.069,0.309,0.125,0.616,0.433,0.685c1.795,0.405,3.499,1.119,5.066,2.122l-1.742,7.531
	c-0.015,0.061-0.027,0.121-0.048,0.205c-0.165,0.713-0.528,1.063-0.803,1.232c-0.274,0.167-0.61,0.231-0.868,0.167
	c-0.347-0.087-0.78-0.32-0.542-1.344l0.456-1.985c0.188-0.806,0.108-1.566-0.231-2.199c-0.323-0.602-0.87-1.035-1.501-1.189
	c-0.768-0.189-1.574-0.083-2.244,0.292l2.229-9.634c0.683-2.958,0.206-5.885-1.342-8.241c-1.555-2.367-4.009-3.962-6.911-4.494
	c-2.986-0.547-5.992,0.025-8.354,1.587c-2.434,1.607-4.084,4.172-4.647,7.223c-0.537,2.907,0.389,6.586,2.165,8.723
	c-0.558,0.321-1.224,0.919-1.532,2.006c-0.356,1.258-0.068,2.179,0.259,2.75c-0.806,0.577-1.409,1.476-1.709,2.558
	c-0.569,2.049,0.489,4.208,2.408,4.917c0.396,0.146,0.875,0.223,1.385,0.223c0.551,0,1.392-0.092,2.262-0.532
	c0.408-0.206,0.78-0.469,1.111-0.786c0.171,0.62,0.6,1.051,1.243,1.235c0.139,0.04,0.363,0.087,0.646,0.087
	c0.436,0,0.862-0.109,1.266-0.325c0.305-0.162,0.721-0.459,1.107-0.991c0.313,0.501,0.768,0.854,1.334,1.031
	c0.134,0.042,0.273,0.07,0.417,0.086c-2.363,2.143-6.057,5.625-6.404,10.382c-0.199,2.733,0.632,5.145,2.401,6.975
	c1.109,1.148,2.551,2.017,4.161,2.51c1.074,0.363,3.096,0.637,4.702,0.637c4.551,0,9.098-1.826,12.472-5.011
	c3.479-3.282,5.394-7.592,5.394-12.137C-84.348,29.317-85.701,25.49-88.157,22.454z M-97.559,47.465
	c1.51-1.631,2.342-3.74,2.342-5.938c0-2.356-0.804-4.482-2.263-5.987c-1.458-1.502-3.515-2.33-5.792-2.33
	c-1.178,0-2.345,0.291-3.374,0.842c-0.901,0.482-1.659,1.156-2.079,1.849c-0.164,0.27-0.078,0.624,0.192,0.788
	c0.264,0.161,0.629,0.07,0.788-0.193c0.644-1.062,2.387-2.139,4.473-2.139c4.067,0,6.908,2.948,6.908,7.17
	c0,1.909-0.723,3.741-2.036,5.16c-1.34,1.448-3.151,2.288-5.1,2.364c-1.025,0.043-2.044-0.091-3.084-0.407l-0.065-0.02
	c-1.401-0.442-2.647-1.199-3.604-2.189c-1.537-1.589-2.256-3.697-2.081-6.095c0.324-4.454,3.893-7.683,6.271-9.833
	c0.871-0.789,1.559-1.412,1.864-1.925l0.004-0.009c0.328-0.454,0.582-1.005,0.754-1.639c0.379-1.4,0.289-2.673-0.253-3.584
	c-0.374-0.626-0.938-1.043-1.634-1.207c-0.203-0.048-0.414-0.072-0.627-0.072c-1.767,0-2.817,1.516-3.21,2.934
	c-0.215,0.777-0.269,1.558-0.155,2.263c-0.58,1.498-1.501,1.661-1.874,1.662c-0.117,0-0.232-0.016-0.333-0.044
	c-0.188-0.054-0.686-0.196-0.433-1.349l1.035-4.471c0.071-0.308-0.122-0.617-0.429-0.688c-0.304-0.07-0.617,0.124-0.689,0.43
	l-0.751,3.249c-0.34,1.161-0.986,1.988-1.919,2.459c-0.521,0.263-1.143,0.407-1.75,0.407c-0.37,0-0.72-0.054-0.985-0.151
	c-1.341-0.495-2.104-2.08-1.699-3.534c0.242-0.871,0.719-1.57,1.354-1.989c0.411,0.33,0.899,0.556,1.424,0.657
	c0.769,0.145,1.325-0.184,1.468-0.752c0.124-0.486-0.125-1.096-0.838-1.321c-0.543-0.18-1.173-0.17-1.779,0.023
	c-0.325-0.529-0.388-1.192-0.181-1.919c0.224-0.792,0.724-1.188,1.103-1.38c0.061-0.031,0.123-0.059,0.186-0.084
	c0.441,0.353,0.911,0.609,1.43,0.771c0.555,0.128,1.071-0.139,1.235-0.625c0.143-0.43-0.019-1.001-0.639-1.274
	c-0.518-0.193-1.126-0.241-1.725-0.14c-1.692-1.741-2.696-5.408-2.199-8.099c0.506-2.742,1.98-5.042,4.151-6.476
	c2.117-1.399,4.821-1.908,7.517-1.415c2.591,0.474,4.778,1.893,6.159,3.995c1.375,2.094,1.794,4.708,1.179,7.367l-3.836,16.581
	c-0.035,0.149-0.01,0.303,0.071,0.433c0.082,0.131,0.208,0.222,0.359,0.256c0.307,0.069,0.617-0.126,0.687-0.429l0.959-4.128
	c0.191-0.829,0.587-1.449,1.146-1.792c0.441-0.272,0.951-0.349,1.478-0.219c0.639,0.157,1.149,0.899,0.889,2.016l-0.457,1.986
	c-0.481,2.08,0.936,2.604,1.381,2.714c0.568,0.145,1.206,0.03,1.744-0.3c0.188-0.115,0.361-0.253,0.517-0.413
	c0.337,0.456,0.825,0.641,1.117,0.713c0.588,0.149,1.294,0.035,1.837-0.296c0.413-0.253,0.952-0.757,1.174-1.718
	c0.034-0.149,0.009-0.303-0.072-0.433c-0.082-0.13-0.208-0.221-0.358-0.255c-0.31-0.071-0.618,0.126-0.687,0.429
	c-0.105,0.456-0.333,0.801-0.656,0.999c-0.26,0.159-0.52,0.193-0.692,0.193c-0.096,0-0.188-0.011-0.269-0.031
	c-0.346-0.086-0.778-0.32-0.541-1.344l1.64-7.086c1.052,0.792,2,1.707,2.824,2.725c2.292,2.833,3.555,6.405,3.555,10.057
	c0,4.226-1.788,8.24-5.034,11.303c-2.474,2.334-5.588,3.886-8.894,4.456C-98.74,48.578-98.116,48.068-97.559,47.465z
	 M-108.021,25.491c0.387-1.656,1.343-2.244,2.044-2.244c0.084,0,0.171,0.006,0.259,0.02c0.384,0.06,0.67,0.241,0.875,0.556
	c0.396,0.61,0.442,1.635,0.124,2.811c-0.391,1.443-1.264,2.032-1.92,2.1c-0.128-0.003-0.252-0.02-0.37-0.049
	c-0.347-0.086-0.658-0.341-0.876-0.716c-0.119-0.203-0.209-0.438-0.264-0.677C-108.225,26.784-108.182,26.178-108.021,25.491z"/>
<path fill="#7C64AC" d="M-101.679,16.085c-3.664,0.045-7.351,1.403-9.394,3.461c-0.221,0.224-0.219,0.588,0.005,0.812
	c0.108,0.106,0.252,0.165,0.403,0.165c0.152,0,0.3-0.062,0.406-0.169c1.813-1.827,5.267-3.082,8.593-3.123
	c0.316-0.003,0.57-0.263,0.566-0.58C-101.102,16.339-101.356,16.085-101.679,16.085z"/>
<path fill="#7C64AC" d="M37,27H2c-1.104,0-2-0.896-2-2s0.896-2,2-2h35c1.104,0,2,0.896,2,2S38.104,27,37,27z"/>
<path fill="#7C64AC" d="M37,47H2c-1.104,0-2-0.896-2-2s0.896-2,2-2h35c1.104,0,2,0.896,2,2S38.104,47,37,47z"/>
<path fill="#7C64AC" d="M37,7H2C0.896,7,0,6.104,0,5s0.896-2,2-2h35c1.104,0,2,0.896,2,2S38.104,7,37,7z"/>
</svg>
