<?xml version="1.0" encoding="utf-8"?>
<!-- Generator: Adobe Illustrator 16.0.4, SVG Export Plug-In . SVG Version: 6.00 Build 0)  -->
<!DOCTYPE svg PUBLIC "-//W3C//DTD SVG 1.1//EN" "http://www.w3.org/Graphics/SVG/1.1/DTD/svg11.dtd">
<svg version="1.1" id="Layer_1" xmlns="http://www.w3.org/2000/svg" xmlns:xlink="http://www.w3.org/1999/xlink" x="0px" y="0px"
	 width="35.704px" height="50px" viewBox="0 0 35.704 50" enable-background="new 0 0 35.704 50" xml:space="preserve">
<g>
	<path fill="#8869AE" d="M-158.048-75.44c-1.017-1.256-2.207-2.355-3.521-3.267l1.135-4.902c0.04-0.174-0.069-0.348-0.243-0.388
		c-0.174-0.041-0.348,0.068-0.388,0.242l-1.079,4.666c-1.625-1.031-3.421-1.787-5.307-2.213c-0.174-0.04-0.348,0.07-0.387,0.244
		c-0.039,0.174,0.07,0.348,0.244,0.387c1.888,0.426,3.682,1.195,5.294,2.251l-1.782,7.703c-0.014,0.058-0.025,0.114-0.036,0.169
		c-0.004,0.012-0.009,0.023-0.012,0.035c-0.185,0.797-0.6,1.195-0.916,1.389c-0.335,0.205-0.731,0.278-1.06,0.196
		c-0.693-0.174-0.938-0.727-0.725-1.643l0.456-1.986c0.175-0.746,0.103-1.446-0.208-2.024c-0.289-0.539-0.778-0.927-1.341-1.065
		c-0.753-0.185-1.521-0.07-2.162,0.326c-0.146,0.09-0.285,0.195-0.415,0.312l2.377-10.271c0.001-0.003,0.001-0.005,0.002-0.008
		c0.667-2.891,0.203-5.749-1.308-8.048c-1.517-2.309-3.913-3.866-6.747-4.385c-2.942-0.539-5.846,0.012-8.172,1.549
		c-2.376,1.569-3.988,4.077-4.539,7.06c-0.527,2.856,0.432,6.694,2.317,8.754c-0.043,0.02-0.087,0.04-0.129,0.062
		c-0.539,0.273-1.248,0.832-1.561,1.936c-0.35,1.233-0.04,2.113,0.281,2.634c0.024,0.041,0.051,0.08,0.078,0.12
		c-0.859,0.534-1.498,1.431-1.81,2.552c-0.534,1.925,0.456,3.952,2.254,4.615c0.349,0.128,0.801,0.208,1.299,0.208
		c0.675,0,1.436-0.145,2.149-0.505c0.539-0.272,1.005-0.646,1.392-1.109c0.035,0.791,0.432,1.337,1.144,1.541
		c0.116,0.033,0.318,0.077,0.577,0.077c0.316,0,0.717-0.065,1.148-0.296c0.371-0.197,0.846-0.57,1.248-1.267
		c0.272,0.647,0.744,1.089,1.385,1.289c0.19,0.059,0.395,0.089,0.608,0.089l0,0c0.061,0,0.122-0.003,0.183-0.008
		c0.009,0,0.017,0,0.025,0c0.059,0,0.117-0.002,0.175-0.006c-0.083,0.075-0.168,0.152-0.255,0.23
		c-2.317,2.097-6.196,5.608-6.548,10.419c-0.193,2.66,0.612,5.005,2.331,6.783c1.094,1.131,2.51,1.971,4.062,2.447
		c1.041,0.352,3.045,0.624,4.622,0.624c4.487,0,8.972-1.801,12.301-4.942c3.428-3.234,5.315-7.48,5.315-11.955
		C-154.294-68.677-155.627-72.448-158.048-75.44z M-176.767-69.124c-0.412-0.103-0.779-0.398-1.031-0.832
		c-0.134-0.229-0.232-0.487-0.296-0.767c-0.074-0.502-0.046-1.129,0.133-1.894c0.421-1.799,1.496-2.437,2.288-2.437
		c0.097,0,0.196,0.007,0.297,0.023c0.451,0.07,0.804,0.294,1.046,0.667c0.436,0.67,0.492,1.768,0.155,3.012
		c-0.428,1.578-1.398,2.207-2.167,2.284C-176.485-69.071-176.627-69.089-176.767-69.124z M-160.053-53.335
		c-2.884,2.721-6.665,4.399-10.54,4.712c1.187-0.446,2.264-1.169,3.154-2.133c1.468-1.585,2.275-3.633,2.275-5.768
		c0-2.292-0.779-4.356-2.192-5.812c-1.41-1.453-3.404-2.254-5.613-2.254c-1.137,0-2.263,0.281-3.256,0.812
		c-0.862,0.461-1.586,1.103-1.983,1.758c-0.093,0.153-0.044,0.352,0.108,0.444c0.153,0.093,0.352,0.044,0.444-0.109
		c0.681-1.123,2.51-2.259,4.687-2.259c4.215,0,7.158,3.051,7.158,7.42c0,1.971-0.746,3.864-2.103,5.33
		c-1.385,1.497-3.258,2.365-5.273,2.444c-1.062,0.041-2.121-0.1-3.119-0.402c-0.028-0.009-0.056-0.019-0.082-0.027
		c-0.011-0.004-0.021-0.006-0.033-0.009c-1.417-0.447-2.708-1.219-3.708-2.253c-1.587-1.642-2.331-3.815-2.15-6.287
		c0.331-4.553,3.945-7.823,6.337-9.987c0.862-0.781,1.545-1.397,1.83-1.877c0.002-0.003,0.002-0.007,0.004-0.01
		c0.312-0.426,0.562-0.957,0.73-1.579c0.361-1.335,0.28-2.539-0.227-3.391c-0.338-0.566-0.849-0.944-1.477-1.092
		c-0.187-0.044-0.378-0.065-0.57-0.065c-1.627,0-2.601,1.421-2.97,2.751c-0.215,0.776-0.259,1.541-0.138,2.221
		c-0.678,1.822-1.907,2.012-2.534,1.832c-0.605-0.173-0.809-0.728-0.607-1.646l1.035-4.471c0.04-0.174-0.068-0.348-0.242-0.388
		c-0.175-0.041-0.348,0.068-0.389,0.242l-0.755,3.263c-0.359,1.228-1.047,2.107-2.047,2.612c-1.062,0.535-2.265,0.514-2.934,0.267
		c-1.46-0.539-2.292-2.259-1.854-3.835c0.278-1.003,0.852-1.792,1.618-2.23c0.399,0.362,0.899,0.614,1.447,0.719
		c0.682,0.131,1.083-0.19,1.179-0.568c0.095-0.372-0.107-0.843-0.674-1.022c-0.549-0.181-1.188-0.149-1.798,0.085
		c-0.041-0.054-0.079-0.11-0.115-0.167c-0.362-0.589-0.436-1.322-0.209-2.119c0.249-0.879,0.807-1.32,1.23-1.535
		c0.111-0.057,0.228-0.105,0.349-0.145c0.434,0.367,0.906,0.645,1.413,0.804c0.008,0.002,0.016,0.004,0.024,0.006
		c0.501,0.117,0.838-0.157,0.94-0.46c0.107-0.322-0.02-0.754-0.471-0.954c-0.006-0.002-0.013-0.005-0.019-0.007
		c-0.522-0.195-1.136-0.227-1.721-0.104c-1.869-1.82-2.868-5.671-2.361-8.415c0.519-2.809,2.031-5.167,4.26-6.639
		c2.187-1.445,4.921-1.961,7.699-1.452c2.659,0.486,4.904,1.944,6.323,4.104c1.413,2.152,1.845,4.834,1.216,7.552
		c0,0.002-0.001,0.005-0.002,0.008l-3.837,16.582c-0.041,0.174,0.068,0.348,0.242,0.388c0.174,0.04,0.348-0.068,0.388-0.242
		l0.946-4.088c0.005-0.014,0.01-0.026,0.013-0.041c0.206-0.895,0.641-1.569,1.258-1.949c0.5-0.308,1.076-0.394,1.669-0.249
		c0.758,0.186,1.37,1.041,1.073,2.315l-0.457,1.986c-0.418,1.806,0.698,2.292,1.198,2.416c0.142,0.036,0.289,0.054,0.438,0.054
		c0.377,0,0.766-0.111,1.114-0.325c0.215-0.131,0.463-0.331,0.686-0.628c0.268,0.602,0.825,0.822,1.14,0.9
		c0.156,0.04,0.32,0.059,0.485,0.059c0.4,0,0.811-0.112,1.159-0.326c0.372-0.228,0.858-0.684,1.062-1.561
		c0.04-0.174-0.068-0.348-0.242-0.388c-0.174-0.04-0.348,0.068-0.388,0.242c-0.121,0.521-0.387,0.921-0.77,1.156
		c-0.409,0.25-0.863,0.263-1.151,0.191c-0.692-0.173-0.937-0.726-0.724-1.643l1.726-7.456c1.182,0.847,2.253,1.853,3.176,2.994
		c2.328,2.877,3.61,6.505,3.61,10.214C-154.941-60.524-156.756-56.446-160.053-53.335z M-186.777-75.39
		c0.372-0.09,0.74-0.084,1.062,0.022c0.187,0.059,0.266,0.172,0.247,0.248c-0.021,0.081-0.179,0.141-0.431,0.093
		C-186.217-75.089-186.517-75.214-186.777-75.39z M-185.161-80.004c0.266,0.003,0.524,0.046,0.756,0.131
		c0.097,0.045,0.126,0.11,0.111,0.154c-0.018,0.051-0.101,0.052-0.17,0.038C-184.705-79.758-184.937-79.867-185.161-80.004z"/>
	<path fill="#8869AE" d="M-171.045-81.397c-0.002-0.179-0.148-0.325-0.327-0.319c-3.602,0.044-7.22,1.373-9.219,3.387
		c-0.125,0.127-0.124,0.332,0.002,0.458c0.063,0.062,0.146,0.093,0.229,0.093c0.082,0,0.166-0.032,0.229-0.095
		c1.856-1.87,5.38-3.155,8.768-3.196C-171.186-81.072-171.043-81.218-171.045-81.397z"/>
</g>
<g>
	<path fill="#8869AE" stroke="#7C64AC" stroke-width="0.5" stroke-miterlimit="10" d="M-74.048-75.44
		c-1.017-1.256-2.207-2.355-3.521-3.267l1.135-4.902c0.04-0.174-0.069-0.348-0.243-0.388c-0.174-0.041-0.348,0.068-0.388,0.242
		l-1.079,4.666c-1.625-1.031-3.421-1.787-5.307-2.213c-0.174-0.04-0.348,0.07-0.387,0.244c-0.039,0.174,0.07,0.348,0.244,0.387
		c1.888,0.426,3.682,1.195,5.294,2.251l-1.782,7.703c-0.014,0.058-0.025,0.114-0.036,0.169c-0.004,0.012-0.009,0.023-0.012,0.035
		c-0.185,0.797-0.6,1.195-0.916,1.389c-0.335,0.205-0.731,0.278-1.06,0.196c-0.693-0.174-0.938-0.727-0.725-1.643l0.456-1.986
		c0.175-0.746,0.103-1.446-0.208-2.024c-0.289-0.539-0.778-0.927-1.341-1.065c-0.753-0.185-1.521-0.07-2.162,0.326
		c-0.146,0.09-0.285,0.195-0.415,0.312l2.377-10.271c0.001-0.003,0.001-0.005,0.002-0.008c0.667-2.891,0.203-5.749-1.308-8.048
		c-1.517-2.309-3.913-3.866-6.747-4.385c-2.942-0.539-5.846,0.012-8.172,1.549c-2.376,1.569-3.988,4.077-4.539,7.06
		c-0.527,2.856,0.432,6.694,2.317,8.754c-0.043,0.02-0.087,0.04-0.129,0.062c-0.539,0.273-1.248,0.832-1.561,1.936
		c-0.35,1.233-0.04,2.113,0.281,2.634c0.024,0.041,0.051,0.08,0.078,0.12c-0.859,0.534-1.498,1.431-1.81,2.552
		c-0.534,1.925,0.456,3.952,2.254,4.615c0.349,0.128,0.801,0.208,1.299,0.208c0.675,0,1.436-0.145,2.149-0.505
		c0.539-0.272,1.005-0.646,1.392-1.109c0.035,0.791,0.432,1.337,1.144,1.541c0.116,0.033,0.318,0.077,0.577,0.077
		c0.316,0,0.717-0.065,1.148-0.296c0.371-0.197,0.846-0.57,1.248-1.267c0.272,0.647,0.744,1.089,1.385,1.289
		c0.19,0.059,0.395,0.089,0.608,0.089l0,0c0.061,0,0.122-0.003,0.183-0.008c0.009,0,0.017,0,0.025,0
		c0.059,0,0.117-0.002,0.175-0.006c-0.083,0.075-0.168,0.152-0.255,0.23c-2.317,2.097-6.196,5.608-6.548,10.419
		c-0.193,2.66,0.612,5.005,2.331,6.783c1.094,1.131,2.51,1.971,4.062,2.447c1.041,0.352,3.045,0.624,4.622,0.624
		c4.487,0,8.972-1.801,12.301-4.942c3.428-3.234,5.315-7.48,5.315-11.955C-70.294-68.677-71.627-72.448-74.048-75.44z
		 M-92.767-69.124c-0.412-0.103-0.779-0.398-1.031-0.832c-0.134-0.229-0.232-0.487-0.296-0.767
		c-0.074-0.502-0.046-1.129,0.133-1.894c0.421-1.799,1.496-2.437,2.288-2.437c0.097,0,0.196,0.007,0.297,0.023
		c0.451,0.07,0.804,0.294,1.046,0.667c0.436,0.67,0.492,1.768,0.155,3.012c-0.428,1.578-1.398,2.207-2.167,2.284
		C-92.485-69.071-92.627-69.089-92.767-69.124z M-76.053-53.335c-2.884,2.721-6.665,4.399-10.54,4.712
		c1.187-0.446,2.264-1.169,3.154-2.133c1.468-1.585,2.275-3.633,2.275-5.768c0-2.292-0.779-4.356-2.192-5.812
		c-1.41-1.453-3.404-2.254-5.613-2.254c-1.137,0-2.263,0.281-3.256,0.812c-0.862,0.461-1.586,1.103-1.983,1.758
		c-0.093,0.153-0.044,0.352,0.108,0.444c0.153,0.093,0.352,0.044,0.444-0.109c0.681-1.123,2.51-2.259,4.687-2.259
		c4.215,0,7.158,3.051,7.158,7.42c0,1.971-0.746,3.864-2.103,5.33c-1.385,1.497-3.258,2.365-5.273,2.444
		c-1.062,0.041-2.121-0.1-3.119-0.402c-0.028-0.009-0.056-0.019-0.082-0.027c-0.011-0.004-0.021-0.006-0.033-0.009
		c-1.417-0.447-2.708-1.219-3.708-2.253c-1.587-1.642-2.331-3.815-2.15-6.287c0.331-4.553,3.945-7.823,6.337-9.987
		c0.862-0.781,1.545-1.397,1.83-1.877c0.002-0.003,0.002-0.007,0.004-0.01c0.312-0.426,0.562-0.957,0.73-1.579
		c0.361-1.335,0.28-2.539-0.227-3.391c-0.338-0.566-0.849-0.944-1.477-1.092c-0.187-0.044-0.378-0.065-0.57-0.065
		c-1.627,0-2.601,1.421-2.97,2.751c-0.215,0.776-0.259,1.541-0.138,2.221c-0.678,1.822-1.907,2.012-2.534,1.832
		c-0.605-0.173-0.809-0.728-0.607-1.646l1.035-4.471c0.04-0.174-0.068-0.348-0.242-0.388c-0.175-0.041-0.348,0.068-0.389,0.242
		l-0.755,3.263c-0.359,1.228-1.047,2.107-2.047,2.612c-1.062,0.535-2.265,0.514-2.934,0.267c-1.46-0.539-2.292-2.259-1.854-3.835
		c0.278-1.003,0.852-1.792,1.618-2.23c0.399,0.362,0.899,0.614,1.447,0.719c0.682,0.131,1.083-0.19,1.179-0.568
		c0.095-0.372-0.107-0.843-0.674-1.022c-0.549-0.181-1.188-0.149-1.798,0.085c-0.041-0.054-0.079-0.11-0.115-0.167
		c-0.362-0.589-0.436-1.322-0.209-2.119c0.249-0.879,0.807-1.32,1.23-1.535c0.111-0.057,0.228-0.105,0.349-0.145
		c0.434,0.367,0.906,0.645,1.413,0.804c0.008,0.002,0.016,0.004,0.024,0.006c0.501,0.117,0.838-0.157,0.94-0.46
		c0.107-0.322-0.02-0.754-0.471-0.954c-0.006-0.002-0.013-0.005-0.019-0.007c-0.522-0.195-1.136-0.227-1.721-0.104
		c-1.869-1.82-2.868-5.671-2.361-8.415c0.519-2.809,2.031-5.167,4.26-6.639c2.187-1.445,4.921-1.961,7.699-1.452
		c2.659,0.486,4.904,1.944,6.323,4.104c1.413,2.152,1.845,4.834,1.216,7.552c0,0.002-0.001,0.005-0.002,0.008l-3.837,16.582
		c-0.041,0.174,0.068,0.348,0.242,0.388c0.174,0.04,0.348-0.068,0.388-0.242l0.946-4.088c0.005-0.014,0.01-0.026,0.013-0.041
		c0.206-0.895,0.641-1.569,1.258-1.949c0.5-0.308,1.076-0.394,1.669-0.249c0.758,0.186,1.37,1.041,1.073,2.315l-0.457,1.986
		c-0.418,1.806,0.698,2.292,1.198,2.416c0.142,0.036,0.289,0.054,0.438,0.054c0.377,0,0.766-0.111,1.114-0.325
		c0.215-0.131,0.463-0.331,0.686-0.628c0.268,0.602,0.825,0.822,1.14,0.9c0.156,0.04,0.32,0.059,0.485,0.059
		c0.4,0,0.811-0.112,1.159-0.326c0.372-0.228,0.858-0.684,1.062-1.561c0.04-0.174-0.068-0.348-0.242-0.388
		c-0.174-0.04-0.348,0.068-0.388,0.242c-0.121,0.521-0.387,0.921-0.77,1.156c-0.409,0.25-0.863,0.263-1.151,0.191
		c-0.692-0.173-0.937-0.726-0.724-1.643l1.726-7.456c1.182,0.847,2.253,1.853,3.176,2.994c2.328,2.877,3.61,6.505,3.61,10.214
		C-70.941-60.524-72.756-56.446-76.053-53.335z M-102.777-75.39c0.372-0.09,0.74-0.084,1.062,0.022
		c0.187,0.059,0.266,0.172,0.247,0.248c-0.021,0.081-0.179,0.141-0.431,0.093C-102.217-75.089-102.517-75.214-102.777-75.39z
		 M-101.161-80.004c0.266,0.003,0.524,0.046,0.756,0.131c0.097,0.045,0.126,0.11,0.111,0.154c-0.018,0.051-0.101,0.052-0.17,0.038
		C-100.705-79.758-100.937-79.867-101.161-80.004z"/>
	<path fill="#8869AE" stroke="#7C64AC" stroke-width="0.5" stroke-miterlimit="10" d="M-87.045-81.397
		c-0.002-0.179-0.148-0.325-0.327-0.319c-3.602,0.044-7.22,1.373-9.219,3.387c-0.125,0.127-0.124,0.332,0.002,0.458
		c0.063,0.062,0.146,0.093,0.229,0.093c0.082,0,0.166-0.032,0.229-0.095c1.856-1.87,5.38-3.155,8.768-3.196
		C-87.186-81.072-87.043-81.218-87.045-81.397z"/>
</g>
<rect x="-245.188" y="0.136" display="none" fill="#8869AE" width="40.909" height="50"/>
<line fill="none" stroke="#7C64AC" stroke-width="4" stroke-linecap="round" stroke-miterlimit="10" x1="-44.187" y1="-73.307" x2="-9.187" y2="-73.307"/>
<line fill="none" stroke="#7C64AC" stroke-width="4" stroke-linecap="round" stroke-miterlimit="10" x1="-44.187" y1="-50.807" x2="-9.187" y2="-50.807"/>
<line fill="none" stroke="#7C64AC" stroke-width="4" stroke-linecap="round" stroke-miterlimit="10" x1="-44.187" y1="-95.807" x2="-9.187" y2="-95.807"/>
<path fill="#7C64AC" d="M31.932,22.35c-0.979-1.209-2.122-2.281-3.4-3.186l1.086-4.691c0.034-0.148,0.008-0.3-0.073-0.429
	s-0.207-0.218-0.354-0.252c-0.3-0.067-0.612,0.124-0.681,0.425L27.52,18.5c-1.572-0.954-3.264-1.64-5.036-2.04
	c-0.303-0.069-0.613,0.13-0.68,0.428c-0.068,0.306,0.124,0.61,0.429,0.678c1.777,0.401,3.464,1.108,5.016,2.101l-1.725,7.457
	c-0.015,0.061-0.026,0.12-0.048,0.203c-0.164,0.706-0.522,1.053-0.795,1.22c-0.271,0.166-0.604,0.229-0.859,0.165
	c-0.343-0.086-0.772-0.317-0.537-1.331l0.451-1.966c0.187-0.798,0.107-1.551-0.229-2.177c-0.319-0.596-0.861-1.025-1.487-1.178
	c-0.76-0.188-1.558-0.083-2.221,0.289l2.208-9.54c0.676-2.929,0.204-5.827-1.329-8.16c-1.54-2.343-3.97-3.923-6.843-4.449
	c-2.957-0.542-5.933,0.024-8.272,1.571c-2.41,1.591-4.044,4.131-4.602,7.152c-0.532,2.879,0.386,6.521,2.144,8.637
	c-0.552,0.318-1.212,0.91-1.517,1.986c-0.353,1.245-0.068,2.158,0.256,2.722c-0.798,0.572-1.395,1.462-1.692,2.533
	c-0.563,2.028,0.484,4.167,2.384,4.868c0.392,0.145,0.867,0.221,1.372,0.221c0.546,0,1.378-0.091,2.24-0.526
	c0.404-0.204,0.772-0.465,1.1-0.778c0.17,0.614,0.594,1.041,1.23,1.223c0.137,0.039,0.36,0.086,0.64,0.086
	c0.432,0,0.854-0.108,1.253-0.322c0.302-0.16,0.713-0.455,1.096-0.981c0.31,0.496,0.76,0.845,1.321,1.021
	c0.133,0.041,0.271,0.069,0.414,0.085c-2.339,2.122-5.997,5.569-6.341,10.28c-0.197,2.706,0.625,5.094,2.377,6.906
	c1.098,1.137,2.525,1.997,4.12,2.485C14.421,49.729,16.423,50,18.014,50c4.506,0,9.008-1.808,12.349-4.961
	c3.444-3.249,5.341-7.517,5.341-12.017C35.704,29.146,34.364,25.355,31.932,22.35z M22.623,47.114
	c1.496-1.615,2.319-3.703,2.319-5.879c0-2.333-0.796-4.438-2.241-5.928C21.257,33.819,19.22,33,16.965,33
	c-1.167,0-2.321,0.288-3.341,0.834c-0.892,0.478-1.643,1.145-2.059,1.83c-0.162,0.268-0.077,0.618,0.19,0.78
	c0.261,0.159,0.623,0.069,0.781-0.191c0.638-1.052,2.363-2.117,4.428-2.117c4.027,0,6.84,2.919,6.84,7.099
	c0,1.89-0.716,3.704-2.016,5.109c-1.327,1.434-3.12,2.266-5.049,2.341c-1.015,0.043-2.024-0.09-3.054-0.403l-0.064-0.02
	c-1.387-0.438-2.621-1.188-3.568-2.167c-1.521-1.574-2.233-3.661-2.06-6.035c0.321-4.41,3.855-7.607,6.209-9.737
	c0.862-0.781,1.543-1.397,1.845-1.906l0.004-0.009c0.325-0.45,0.576-0.995,0.747-1.623c0.375-1.386,0.286-2.646-0.25-3.548
	c-0.37-0.62-0.929-1.033-1.618-1.195c-0.201-0.047-0.41-0.072-0.622-0.072c-1.749,0-2.789,1.501-3.179,2.905
	c-0.213,0.77-0.266,1.542-0.153,2.241c-0.574,1.483-1.486,1.645-1.855,1.645c-0.116,0-0.23-0.016-0.33-0.044
	c-0.186-0.053-0.679-0.194-0.428-1.336l1.025-4.427c0.07-0.305-0.121-0.61-0.425-0.681c-0.301-0.069-0.611,0.123-0.682,0.426
	l-0.744,3.217c-0.336,1.149-0.976,1.968-1.9,2.435c-0.516,0.26-1.131,0.403-1.733,0.403c-0.366,0-0.712-0.053-0.975-0.15
	c-1.328-0.49-2.083-2.06-1.682-3.499c0.239-0.862,0.711-1.555,1.34-1.97c0.407,0.326,0.89,0.55,1.41,0.65
	c0.761,0.144,1.312-0.182,1.454-0.744c0.123-0.481-0.124-1.085-0.83-1.309c-0.538-0.178-1.162-0.168-1.761,0.023
	c-0.322-0.524-0.384-1.181-0.179-1.901c0.222-0.784,0.717-1.176,1.092-1.367c0.06-0.03,0.122-0.058,0.184-0.083
	c0.437,0.35,0.902,0.603,1.416,0.763c0.549,0.127,1.06-0.138,1.223-0.619c0.142-0.426-0.019-0.992-0.633-1.262
	c-0.513-0.191-1.115-0.239-1.708-0.138c-1.676-1.724-2.669-5.355-2.177-8.02c0.5-2.715,1.961-4.993,4.11-6.412
	c2.096-1.385,4.773-1.89,7.442-1.401c2.565,0.469,4.731,1.874,6.099,3.956c1.361,2.073,1.777,4.661,1.167,7.294l-3.798,16.417
	c-0.035,0.147-0.01,0.299,0.07,0.428c0.081,0.129,0.207,0.219,0.355,0.254c0.304,0.068,0.611-0.125,0.68-0.425l0.95-4.087
	c0.189-0.821,0.581-1.435,1.134-1.775c0.437-0.27,0.941-0.345,1.463-0.217c0.632,0.155,1.138,0.891,0.88,1.996l-0.453,1.967
	c-0.477,2.06,0.926,2.578,1.367,2.688c0.563,0.144,1.194,0.03,1.727-0.297c0.187-0.114,0.358-0.251,0.512-0.409
	c0.333,0.452,0.817,0.634,1.105,0.706c0.582,0.147,1.281,0.035,1.819-0.293c0.409-0.251,0.942-0.75,1.163-1.702
	c0.034-0.147,0.009-0.3-0.071-0.428c-0.081-0.128-0.207-0.219-0.354-0.252c-0.307-0.07-0.611,0.125-0.68,0.424
	c-0.104,0.451-0.329,0.793-0.65,0.989c-0.258,0.158-0.515,0.191-0.685,0.191c-0.095,0-0.187-0.01-0.266-0.03
	c-0.342-0.085-0.771-0.316-0.536-1.331l1.624-7.016c1.042,0.784,1.981,1.69,2.796,2.698c2.27,2.805,3.52,6.342,3.52,9.958
	c0,4.185-1.77,8.159-4.984,11.191c-2.45,2.311-5.533,3.848-8.806,4.412C21.454,48.216,22.071,47.711,22.623,47.114z M12.264,25.357
	c0.383-1.64,1.33-2.221,2.024-2.221c0.083,0,0.169,0.006,0.256,0.02c0.38,0.059,0.663,0.239,0.866,0.551
	c0.393,0.604,0.438,1.619,0.123,2.783c-0.388,1.429-1.252,2.012-1.901,2.079c-0.126-0.003-0.25-0.02-0.366-0.049
	c-0.344-0.085-0.652-0.337-0.868-0.709c-0.118-0.201-0.207-0.433-0.261-0.67C12.062,26.637,12.104,26.038,12.264,25.357z"/>
<path fill="#7C64AC" d="M18.543,15.794c-3.627,0.044-7.278,1.39-9.301,3.427c-0.219,0.222-0.217,0.582,0.005,0.804
	c0.107,0.105,0.25,0.163,0.399,0.163c0.151,0,0.297-0.062,0.402-0.167c1.796-1.809,5.215-3.052,8.509-3.092
	c0.313-0.003,0.564-0.261,0.561-0.574C19.115,16.046,18.863,15.794,18.543,15.794z"/>
<path fill="#7C64AC" d="M159.549,27h-35c-1.104,0-2-0.896-2-2s0.896-2,2-2h35c1.104,0,2,0.896,2,2S160.653,27,159.549,27z"/>
<path fill="#7C64AC" d="M159.549,47h-35c-1.104,0-2-0.896-2-2s0.896-2,2-2h35c1.104,0,2,0.896,2,2S160.653,47,159.549,47z"/>
<path fill="#7C64AC" d="M159.549,7h-35c-1.104,0-2-0.896-2-2s0.896-2,2-2h35c1.104,0,2,0.896,2,2S160.653,7,159.549,7z"/>
</svg>
