<?xml version="1.0" encoding="utf-8"?>
<!-- Generator: Adobe Illustrator 16.0.4, SVG Export Plug-In . SVG Version: 6.00 Build 0)  -->
<!DOCTYPE svg PUBLIC "-//W3C//DTD SVG 1.1//EN" "http://www.w3.org/Graphics/SVG/1.1/DTD/svg11.dtd">
<svg version="1.1" id="Layer_1" xmlns="http://www.w3.org/2000/svg" xmlns:xlink="http://www.w3.org/1999/xlink" x="0px" y="0px"
	 width="35px" height="30px" viewBox="1062.5 1065 35 30" enable-background="new 1062.5 1065 35 30" xml:space="preserve">
<path fill="#7B64AD" d="M1064.697,1069.286h30.606c1.221,0,2.197-0.952,2.197-2.143c0-1.191-0.977-2.143-2.197-2.143h-30.606
	c-1.221,0-2.197,0.952-2.197,2.143C1062.5,1068.333,1063.476,1069.286,1064.697,1069.286z"/>
<path fill="#7B64AD" d="M1095.303,1077.857h-30.606c-1.221,0-2.197,0.953-2.197,2.143c0,1.191,0.976,2.143,2.197,2.143h30.606
	c1.221,0,2.197-0.951,2.197-2.143C1097.5,1078.81,1096.523,1077.857,1095.303,1077.857z"/>
<path fill="#7B64AD" d="M1095.303,1090.714h-30.606c-1.221,0-2.197,0.953-2.197,2.144s0.976,2.143,2.197,2.143h30.606
	c1.221,0,2.197-0.952,2.197-2.143S1096.523,1090.714,1095.303,1090.714z"/>
</svg>
